<?xml version="1.0" encoding="UTF-8" standalone="no"?>
<!-- Created with Inkscape (http://www.inkscape.org/) -->

<svg
   width="28.287222mm"
   height="26.539791mm"
   viewBox="0 0 28.287222 26.539791"
   version="1.1"
   id="svg1219"
   xmlns="http://www.w3.org/2000/svg"
   xmlns:svg="http://www.w3.org/2000/svg">
  <defs
     id="defs1216" />
  <g
     id="layer1"
     transform="translate(-86.534359,-110.06062)">
    <ellipse
       style="fill:#ffffff;stroke:#000000;stroke-width:2.07228;stroke-dasharray:none"
       id="path229"
       cx="100.67797"
       cy="123.33051"
       rx="13.107471"
       ry="12.233755" />
    <path
       d="m 96.655088,118.97767 v 2.23704 q 0,0.29858 0.148602,0.45953 0.148603,0.16095 0.373903,0.16095 0.311585,0 0.405061,-0.29391 0.09348,-0.29625 0.09348,-1.02404 v -0.3639 q 0,-0.58551 -0.02397,-0.8631 -0.02157,-0.27758 -0.127031,-0.43388 -0.103062,-0.15628 -0.33795,-0.15628 -0.198935,0 -0.44341,0.19128 z m -1.589085,3.77427 v -6.80209 h 1.589085 v 2.28369 h 0.02157 q 0.16538,-0.17262 0.438616,-0.28225 0.275634,-0.10964 0.522505,-0.10964 0.534488,0 0.915581,0.31958 0.38349,0.31724 0.577632,0.87709 0.196538,0.55751 0.196538,1.25731 0,0.5995 -0.184554,1.178 -0.184555,0.5785 -0.592012,0.95873 -0.407458,0.37789 -1.030629,0.37789 -0.824502,0 -1.335023,-0.74645 l -0.294808,0.68814 z"
       style="font-stretch:semi-condensed;font-size:9.6851px;font-family:'Franklin Gothic';-inkscape-font-specification:'Franklin Gothic, Semi-Condensed';letter-spacing:0.0726382px;word-spacing:-0.0211862px;fill:#000000;stroke:none;stroke-width:0"
       id="path293" />
    <path
       d="m 99.930857,122.75194 v -4.79598 h 1.589083 v 4.79598 z m 0,-5.42814 v -1.37395 h 1.589083 v 1.37395 z"
       style="font-stretch:semi-condensed;font-size:9.6851px;font-family:'Franklin Gothic';-inkscape-font-specification:'Franklin Gothic, Semi-Condensed';letter-spacing:0.0726382px;word-spacing:-0.0211862px;fill:#000000;stroke:none;stroke-width:0"
       id="path295" />
    <path
       d="m 106.83779,117.55474 v 1.22232 q -0.27563,-0.24727 -0.56085,-0.24727 -0.19175,0 -0.26605,0.10497 0.23729,0.26593 0.23729,0.78145 0,0.44554 -0.29242,0.76978 -0.29241,0.32192 -0.74301,0.4852 -0.4482,0.16096 -0.90838,0.16096 -0.31159,0 -0.67831,-0.0769 -0.16777,0.20528 -0.16777,0.27759 0,0.23093 0.23249,0.28691 0.23249,0.0559 0.75979,0.0559 0.95633,0 1.58189,0.25892 0.62797,0.25894 0.62797,1.05904 0,0.48053 -0.3044,0.81644 -0.30439,0.3359 -0.85806,0.50386 -0.55366,0.17028 -1.28229,0.17028 -0.78136,0 -1.53396,-0.20294 -0.7526,-0.20061 -0.7526,-0.79078 0,-0.3569 0.27084,-0.5645 0.27084,-0.20995 0.66152,-0.27526 v -0.0187 q -0.69747,-0.21928 -0.69747,-0.78378 0,-0.32658 0.3044,-0.58084 0.30439,-0.2566 0.65672,-0.3359 v -0.021 q -0.453,-0.18895 -0.68788,-0.51552 -0.23489,-0.32891 -0.23489,-0.74413 0,-0.50152 0.31638,-0.84443 0.31878,-0.34523 0.78615,-0.50385 0.46978,-0.16096 0.91079,-0.16096 0.82929,0 1.36378,0.34291 0.0575,-0.13063 0.26845,-0.27759 0.21092,-0.14929 0.48655,-0.24959 0.27563,-0.10264 0.50333,-0.10264 z m -2.62211,4.9686 q -1.0498,0 -1.0498,0.43854 0,0.41988 1.0498,0.41988 0.46019,0 0.77417,-0.0747 0.31638,-0.0723 0.31638,-0.34524 0,-0.43854 -1.09055,-0.43854 z m 0,-3.99355 q -0.29481,0 -0.41704,0.25426 -0.12224,0.25193 -0.12224,0.59484 0,0.31024 0.12942,0.53884 0.12944,0.22627 0.40986,0.22627 0.302,0 0.42903,-0.24027 0.12942,-0.24259 0.12942,-0.59249 0,-0.31958 -0.13662,-0.55051 -0.13661,-0.23094 -0.42183,-0.23094 z"
       style="font-stretch:semi-condensed;font-size:9.6851px;font-family:'Franklin Gothic';-inkscape-font-specification:'Franklin Gothic, Semi-Condensed';letter-spacing:0.0726382px;word-spacing:-0.0211862px;fill:#000000;stroke:none;stroke-width:0"
       id="path297" />
    <path
       d="m 92.844757,129.78263 v -4.45328 h 1.647845 v 0.59348 h 0.01986 q 0.533565,-0.69961 1.454272,-0.69961 0.49634,0 0.791661,0.27291 0.295322,0.27291 0.295322,0.72994 v 3.55656 h -1.647845 v -3.14936 q 0,-0.39854 -0.394589,-0.39854 -0.260578,0 -0.426852,0.18628 l -0.09182,0.10614 v 3.25548 z"
       id="path300"
       style="font-stretch:semi-condensed;font-size:9.49648px;font-family:'Franklin Gothic';-inkscape-font-specification:'Franklin Gothic, Semi-Condensed';stroke-width:0" />
    <path
       d="m 97.641872,127.53867 q 0,-0.6758 0.258097,-1.19997 0.260578,-0.52634 0.779251,-0.82091 0.518675,-0.29457 1.260701,-0.29457 0.744509,0 1.263179,0.29457 0.51868,0.29457 0.77677,0.82091 0.2581,0.52417 0.2581,1.19997 0,0.69961 -0.25313,1.23244 -0.25065,0.53067 -0.76685,0.82525 -0.51619,0.2924 -1.278069,0.2924 -0.76188,0 -1.278072,-0.2924 -0.516193,-0.29458 -0.769326,-0.82525 -0.250651,-0.53283 -0.250651,-1.23244 z m 1.709887,0 q 0,0.55666 0.06204,0.87289 0.06204,0.31406 0.18861,0.44403 0.126566,0.12779 0.33751,0.12779 0.210941,0 0.337511,-0.12996 0.12905,-0.12996 0.19109,-0.44403 0.062,-0.31406 0.062,-0.87072 0,-0.79492 -0.12408,-1.1025 -0.12161,-0.30974 -0.466564,-0.30974 -0.342473,0 -0.466557,0.30974 -0.121604,0.30758 -0.121604,1.1025 z"
       id="path302"
       style="font-stretch:semi-condensed;font-size:9.49648px;font-family:'Franklin Gothic';-inkscape-font-specification:'Franklin Gothic, Semi-Condensed';stroke-width:0" />
    <path
       d="m 103.48626,129.78263 -1.15895,-4.45328 h 1.61807 l 0.47648,2.29811 h 0.0199 l 0.57079,-2.29811 h 1.3823 l 0.46656,2.29811 h 0.0199 l 0.60056,-2.29811 h 1.1788 l -1.32026,4.45328 h -1.30288 l -0.56831,-2.48439 h -0.0198 l -0.68247,2.48439 z"
       id="path304"
       style="font-stretch:semi-condensed;font-size:9.49648px;font-family:'Franklin Gothic';-inkscape-font-specification:'Franklin Gothic, Semi-Condensed';stroke-width:0" />
  </g>
</svg>
